<svg xmlns="http://www.w3.org/2000/svg" viewBox="0 0 100 100" width="60" height="60">
  <!-- Nền tròn xanh -->
  <circle cx="50" cy="50" r="45" fill="#3498db" stroke="#2980b9" stroke-width="6"/>
  <!-- Nắm đấm (Búa) -->
  <path d="M 25 55 A 7 7 0 0 1 39 50 A 7 7 0 0 1 53 50 A 7 7 0 0 1 65 53 A 7 7 0 0 1 75 60 L 75 70 C 75 85, 60 85, 50 85 C 35 85, 25 80, 25 65 Z" fill="#ffffff" stroke="#2c3e50" stroke-width="4" stroke-linejoin="round"/>
  <!-- Khe hở giữa các ngón tay -->
  <line x1="39" y1="50" x2="39" y2="70" stroke="#2c3e50" stroke-width="4" stroke-linecap="round"/>
  <line x1="53" y1="50" x2="53" y2="70" stroke="#2c3e50" stroke-width="4" stroke-linecap="round"/>
  <line x1="65" y1="53" x2="65" y2="70" stroke="#2c3e50" stroke-width="4" stroke-linecap="round"/>
  <!-- Ngón cái gập ngang -->
  <path d="M 21 72 C 21 55, 45 50, 65 65 A 4 4 0 0 1 60 72 C 45 60, 30 65, 30 78 Z" fill="#ffffff" stroke="#2c3e50" stroke-width="4" stroke-linejoin="round"/>
</svg>
